<svg version="1.1" id="Layer_1" xmlns="http://www.w3.org/2000/svg" xmlns:xlink="http://www.w3.org/1999/xlink" x="0px" y="0px" viewBox="0 0 500 500" style="width: 595px;" xml:space="preserve" data-imageid="alien-82" imageName="Alien" class="illustrations_image">
<style type="text/css">
	.st0_alien-82{fill:#FFFFFF;}
	.st1_alien-82{fill:#093F68;}
	.st2_alien-82{fill:#68E1FD;}
	.st3_alien-82{fill:#DFEAEF;}
</style>
<g id="circle_alien-82">
	<path class="st0_alien-82" d="M427.4,257.3c0,79.2-52.5,148.9-128.7,170.7c-5.1,1.4-10.3,2.7-15.6,3.7c-10.9,2.1-22,3.1-33.2,3.1&#10;&#9;&#9;c-9.1,0-18.2-0.7-27.2-2.1c-0.1,0-0.1,0-0.2,0c-1.2-0.2-2.3-0.4-3.5-0.6c-0.1,0-0.2,0-0.2,0c-3.5-0.6-6.9-1.3-10.3-2.1&#10;&#9;&#9;c-5.7-1.4-11.3-3-16.8-5C99.3,392.9,50.2,291.8,82.3,199.2S215.5,57.6,308.1,89.6C379.5,114.4,427.4,181.7,427.4,257.3z"/>
	<path class="st1_alien-82" d="M250,436.7c-9.2,0-18.4-0.7-27.5-2.1h-0.2c-1.2-0.2-2.3-0.4-3.4-0.5c-0.1,0-0.3,0-0.4-0.1&#10;&#9;&#9;c-3.4-0.6-6.9-1.3-10.3-2.1c-5.7-1.4-11.4-3-17-5C97.5,394.6,47.8,292.5,80.1,198.8c25-72.4,93.2-121,169.9-120.9&#10;&#9;&#9;c99,0,179.4,80.2,179.4,179.3c0,0,0,0.1,0,0.1c0,79.8-53.5,150.7-130.1,172.6c-5.2,1.5-10.5,2.7-15.7,3.7&#10;&#9;&#9;C272.5,435.7,261.3,436.7,250,436.7z M223.2,430.7c19.8,3,39.9,2.6,59.6-1c5.1-1,10.3-2.2,15.4-3.6&#10;&#9;&#9;c74.9-21.4,127.3-90.8,127.3-168.8c0-96.9-78.6-175.4-175.5-175.4c-96.9,0-175.4,78.6-175.4,175.5c0,74.7,47.4,141.2,118,165.7&#10;&#9;&#9;c5.4,1.9,11,3.5,16.6,4.9c3.3,0.8,6.7,1.5,10.2,2.1c0.1,0,0.1,0,0.1,0h0.2c1.1,0.2,2.2,0.4,3.3,0.5L223.2,430.7L223.2,430.7l-0.1,0&#10;&#9;&#9;L223.2,430.7z M223.4,430.8h0.1H223.4L223.4,430.8z"/>
</g>
<g id="alien_alien-82">
	<path class="st2_alien-82 targetColor" d="M316.6,363c-5,26.8-16.2,19.3-16.2,43.6c0.1,7.2-0.5,14.3-1.7,21.4c-5.1,1.4-10.3,2.7-15.6,3.7&#10;&#9;&#9;c-10.9,2.1-22,3.1-33.2,3.1c-9.1,0-18.2-0.7-27.2-2.1c-0.1-3.4-0.2-7-0.4-7l0,0c-0.2,0.2-0.6,1.1-1.1,2.3c0,0.1-0.1,0.2-0.1,0.2&#10;&#9;&#9;c-0.2,0.4-0.4,0.9-0.7,1.4c-0.4,0.8-0.8,1.6-1.3,2.4c-0.1,0-0.2,0-0.2,0c-3.5-0.6-6.9-1.3-10.3-2.1c-0.1-0.4-0.2-0.9-0.2-1.3&#10;&#9;&#9;c-1.3-7.3-1.9-14.7-1.8-22c0-0.5,0-1.1,0-1.6c-0.5-22.4-11.3-15.8-16.2-42c-5-26.8,8.4-34.2,16.5-40.2s33.6-10.6,33.6-25.2&#10;&#9;&#9;c0-2.9,0.1-5.7,0.2-8.5c0.4-11.3,1.4-20.8,1.4-20.8l11.4-3.1l11.4,3.1c0,0,1,9.5,1.4,20.8l0,0c0.1,2.8,0.2,5.6,0.2,8.5&#10;&#9;&#9;c0,10.5,13.1,15.9,23.5,20.2l0,0h0.1c4.1,1.7,7.8,3.3,10,5C308.2,328.7,321.6,336.2,316.6,363z" style="fill: rgb(104, 225, 253);"/>
	<path class="st1_alien-82" d="M250,436.7c-9.2,0-18.4-0.7-27.5-2.1c-0.8-0.1-1.5-0.8-1.6-1.6c-0.4,0.6-1,1-1.7,1c-0.2,0-0.5,0-0.7-0.1&#10;&#9;&#9;c-3.4-0.6-6.9-1.3-10.3-2.1c-0.7-0.2-1.3-0.7-1.5-1.5c-0.1-0.4-0.2-0.8-0.2-1.2c-1.4-7.5-2-15-1.9-22.6c0-0.5,0-1,0-1.5&#10;&#9;&#9;c-0.2-10.8-2.9-14.3-6.3-18.8s-7.4-9.7-9.9-23c-4.9-26.3,7.5-35.1,15.7-41l1.6-1.2c2.6-1.9,6.4-3.5,10.9-5.4&#10;&#9;&#9;c9.8-4.1,21.9-9.2,21.9-18.2c0-2.7,0-5.6,0.2-8.5c0.4-11.3,1.4-20.8,1.4-20.9c0.1-0.8,0.7-1.5,1.4-1.7l11.4-3.1&#10;&#9;&#9;c0.3-0.1,0.7-0.1,1,0l11.4,3.1c0.8,0.2,1.4,0.9,1.5,1.7c0,0.1,1,9.7,1.4,20.9c0.1,3,0.2,5.8,0.2,8.5c0,9,12.1,14.1,21.9,18.2&#10;&#9;&#9;l0.3,0.1l0.3,0.1c4.6,1.9,8,3.4,10.3,5.1l1.6,1.1c8.2,5.9,20.6,14.7,15.7,41c-2.5,13.3-6.4,18.4-9.9,23s-6.3,8.2-6.3,20.3&#10;&#9;&#9;c0.1,7.3-0.5,14.6-1.7,21.8c-0.1,0.7-0.7,1.3-1.4,1.5c-5.2,1.5-10.5,2.7-15.7,3.7C272.5,435.7,261.2,436.8,250,436.7z M224.8,431&#10;&#9;&#9;c19.3,2.8,38.9,2.3,58-1.3c4.7-0.9,9.5-2,14.2-3.3c1-6.6,1.5-13.2,1.4-19.8c0-13.4,3.3-17.7,7.1-22.7c3.2-4.2,6.8-9,9.1-21.3l0,0&#10;&#9;&#9;c4.4-23.8-6.3-31.5-14.1-37c-0.6-0.4-1.1-0.8-1.6-1.2c-2.2-1.6-6-3.2-9.6-4.7l-0.1-0.1l-0.4-0.2c-10.8-4.5-24.3-10.2-24.3-21.9&#10;&#9;&#9;c0-2.7-0.1-5.5-0.2-8.4c-0.3-8.7-1-16.3-1.2-19.3l-9.6-2.6l-9.6,2.6c-0.3,3-1,10.6-1.3,19.3c-0.1,2.9-0.2,5.7-0.2,8.4&#10;&#9;&#9;c0,11.7-13.5,17.4-24.3,21.9c-4.1,1.7-7.9,3.3-10.1,4.9l-1.6,1.2c-7.8,5.6-18.5,13.2-14.1,37c2.3,12.3,5.9,17.1,9.1,21.3&#10;&#9;&#9;c3.5,4.6,6.8,8.9,7.1,21c0,0.5,0,1.1,0,1.6c-0.1,7.3,0.5,14.5,1.8,21.7l0,0c2.6,0.6,5.1,1.1,7.8,1.6c0.2-0.4,0.4-0.8,0.6-1.1&#10;&#9;&#9;s0.5-0.9,0.6-1.3c0-0.1,0.1-0.2,0.1-0.3l0.5-1c0.2-0.6,0.5-1.1,0.9-1.6c0-0.1,0.1-0.1,0.1-0.2c0.4-0.4,0.9-0.7,1.5-0.7&#10;&#9;&#9;C224.5,423.7,224.7,424.9,224.8,431z M298.8,428L298.8,428z"/>
	<path class="st1_alien-82" d="M264.9,328.5c-1.1,0-2-0.9-1.9-2.1c0-0.6,0.3-1.1,0.7-1.4c9.7-8.1,24.9-9.2,25.5-9.2c1.1-0.1,2.1,0.8,2.1,1.9&#10;&#9;&#9;s-0.8,2.1-1.9,2.1c-0.1,0-14.5,1-23.2,8.3C265.8,328.4,265.4,328.5,264.9,328.5z"/>
	<path class="st1_alien-82" d="M241.6,328.5c-0.5,0-0.9-0.2-1.3-0.5c-8.7-7.3-23.1-8.3-23.2-8.3c-1.1-0.1-1.9-1-1.9-2.1&#10;&#9;&#9;c0.1-1.1,1-1.9,2.1-1.9c0.6,0,15.8,1.1,25.5,9.2c0.8,0.7,0.9,2,0.2,2.8C242.7,328.3,242.2,328.5,241.6,328.5z"/>
	<path class="st1_alien-82" d="M222.7,434.6c-1.1,0-2-0.8-2-1.9l-0.2-7c-0.5-13.6-1.3-34.5-1.8-45.3c-0.7-16.9-1.4-26.8-7.7-34.3&#10;&#9;&#9;c-0.6-0.9-0.3-2.2,0.7-2.7c0.7-0.4,1.7-0.4,2.3,0.2c7.1,8.5,7.9,18.9,8.6,36.7c0.4,10.8,1.2,31.6,1.8,45.3l0.2,7&#10;&#9;&#9;C224.6,433.7,223.8,434.6,222.7,434.6L222.7,434.6z"/>
	<path class="st1_alien-82" d="M283.2,433.6H283c-1.1-0.1-1.9-1-1.8-2.1c0.8-11.1,2.6-38.5,3.1-51.2c0.7-17.8,1.5-28.2,8.6-36.7&#10;&#9;&#9;c0.8-0.7,2.1-0.6,2.8,0.3c0.5,0.7,0.6,1.6,0.2,2.3c-6.3,7.5-7,17.4-7.7,34.3c-0.5,12.3-2.2,37.4-3.1,51.3&#10;&#9;&#9;C285,432.8,284.2,433.6,283.2,433.6z"/>
	<path class="st2_alien-82 targetColor" d="M347.9,159.9c0,63.6-80.6,135.5-94.4,135.5s-94.4-71.9-94.4-135.5s42.3-94.7,94.4-94.7S347.9,96.3,347.9,159.9&#10;&#9;&#9;z" style="fill: rgb(104, 225, 253);"/>
	<path class="st1_alien-82" d="M253.5,297.4c-8.6,0-33.8-20.9-53.9-44.6c-15.9-18.8-42.5-55.9-42.5-92.9c0-30.5,9.8-55.6,28.3-72.6&#10;&#9;&#9;c17.1-15.7,40.6-24,68.1-24s51,8.3,68.1,24c18.5,17,28.3,42.2,28.3,72.6c0,37-26.6,74.1-42.5,92.9&#10;&#9;&#9;C287.3,276.6,262.1,297.4,253.5,297.4z M253.5,67.2c-44.7,0-92.4,24.4-92.4,92.7c0,35.7,26,71.9,41.6,90.3&#10;&#9;&#9;c21.9,26,45.1,43.2,50.9,43.2s28.9-17.2,50.9-43.2c15.5-18.4,41.6-54.6,41.6-90.3C345.9,91.6,298.2,67.2,253.5,67.2z"/>
	<path class="st2_alien-82 targetColor" d="M221.2,428c0,0.1-0.1,0.2-0.1,0.2c-0.2,0.4-0.4,0.9-0.7,1.4c-0.4,0.8-1,1.6-1.5,2.4c-3.5-0.6-6.9-1.3-10.3-2.1&#10;&#9;&#9;c-5.7-1.3-11.3-3-16.8-4.9c-2-3.5-4.1-7-6.1-10.5l-25.2-43.1c-21.5-6.7-26.6-18.4-26.6-18.4c-12.4-5.1-20.3-12.6-23-16.5&#10;&#9;&#9;s-7.8,0-12.4-3.4s-5.2-10.7,0-13.9s10.8,1.6,15.2,5.6s19,9.3,19,9.3s-14.3-18.5-16.4-22.4s-5-1.1-8.6-6.1s-9.2-12.5,0.4-15.8&#10;&#9;&#9;s11.7,8.2,14.6,11.8s21.5,24.5,22.6,25.8c-3.6-4.4-10.2-20.8-10.9-23.1s-6.3-5.8-7.8-12.5s2.5-10.5,9.2-7.2s7.9,14.6,7.9,14.6&#10;&#9;&#9;c4.4,9.2,12.7,25,15.4,30.2c0.2,0.5,0.5,0.9,0.6,1.1s0.3,0.6,0.3,0.6s0.1-0.5,0.5-1.4c0.2-0.4,0.4-0.9,0.6-1.4l0,0&#10;&#9;&#9;c3.6-7.3,8.7-13.8,14.9-19.1c12.7-11.1,20.7-4.6,21.8,0.6s-8.9,8.7-8.9,8.7s-5.5,8.8-9,13.7s-2.4,28.1-2.4,28.1l4.9,7.5l18.1,27.6&#10;&#9;&#9;c2,3.1,4.1,6.2,6.1,9.4l2.6,3.9L221.2,428z" style="fill: rgb(104, 225, 253);"/>
	<path class="st1_alien-82" d="M219,434c-0.1,0-0.2,0-0.4,0c-3.5-0.6-7-1.4-10.4-2.2c-5.7-1.4-11.4-3-17-5c-0.4-0.2-0.8-0.5-1.1-0.9&#10;&#9;&#9;c-2.1-3.5-4.1-7-6.1-10.5c-8.3-14.2-16.6-28.3-24.9-42.5c-18.7-6-25.2-15.7-26.7-18.5c-12.8-5.4-20.6-13.1-23.2-16.9&#10;&#9;&#9;c-0.7-1-1.6-1.1-4-1s-5.2,0.1-8-1.9c-2.9-2.2-4.6-5.6-4.5-9.2c0.1-3.3,1.8-6.3,4.6-8c6.6-4.1,13.5,2.1,17.6,5.8&#10;&#9;&#9;c2.1,1.9,7.2,4.4,11.7,6.3c-4.4-5.8-10.8-14.4-12.2-17c-0.6-1.1-1-1.2-2.3-1.6c-2.5-0.6-4.7-2.1-6.1-4.2c-2.8-3.8-6.4-8.8-5-13.3&#10;&#9;&#9;c0.8-2.5,2.9-4.3,6.4-5.5c9-3.1,12.7,4.6,15,9.2c0.5,1.1,1.1,2.2,1.8,3.2c1.3,1.7,6.7,7.9,11.9,13.7c-1.9-4.4-3.4-8.2-3.7-9.2&#10;&#9;&#9;c-0.5-0.8-1.1-1.6-1.8-2.2c-2-2.2-5-5.6-6-10.4c-0.9-4.1,0-7.5,2.3-9.4c1.4-1.1,4.5-2.5,9.7,0c7,3.4,8.7,13.8,8.9,15.9&#10;&#9;&#9;c4.2,8.7,11.5,22.7,14.2,27.9c3.7-7.2,8.8-13.5,14.9-18.8c8.1-7.2,14.2-7.2,17.9-6c3.6,1.2,6.3,4.1,7.1,7.7c1.3,6-6.9,9.7-9.5,10.7&#10;&#9;&#9;c-1.3,2-5.7,9-8.7,13.2c-2.2,3.1-2.5,17.6-2.1,26.4l22.6,34.7c2,3.1,4.1,6.2,6.1,9.4l2.6,3.9l12.1,19.2c0.4,0.6,0.4,1.3,0.1,1.9&#10;&#9;&#9;c0,0.1-0.1,0.2-0.1,0.3c-0.2,0.4-0.4,0.9-0.6,1.3c-0.6,1-1.1,1.8-1.7,2.7C220.2,433.7,219.6,434,219,434z M193.3,423.4&#10;&#9;&#9;c5.3,1.8,10.6,3.4,15.9,4.6c2.9,0.7,5.9,1.3,8.9,1.9c0.2-0.4,0.5-0.8,0.7-1.2l0.2-0.5L205,406.1c-2-3.1-4.1-6.2-6.1-9.3l-22.9-35.1&#10;&#9;&#9;c-0.2-0.3-0.3-0.6-0.3-1c-0.2-4-0.9-24.2,2.8-29.4c3.4-4.8,8.9-13.5,9-13.6c0.2-0.4,0.6-0.7,1-0.8c2.7-0.9,8.2-3.8,7.6-6.4&#10;&#9;&#9;c-0.6-2.3-2.3-4.1-4.5-4.8c-3.8-1.3-8.8,0.6-14,5.2c-5.9,5.1-10.8,11.3-14.3,18.3c0,0.1,0,0.1-0.1,0.2l-0.4,0.9l-0.2,0.4&#10;&#9;&#9;c-0.3,0.7-0.4,1.2-0.4,1.2c-0.2,0.8-0.9,1.3-1.7,1.4c-0.8,0.1-1.6-0.4-1.9-1.1c0,0-0.1-0.2-0.2-0.5l-0.6-1.2&#10;&#9;&#9;c-0.4-0.8-10.4-19.6-15.4-30.2c-0.1-0.2-0.2-0.4-0.2-0.7c0-0.1-1.1-10.3-6.8-13.1c-2.4-1.2-4.4-1.3-5.5-0.5s-1.5,2.9-0.9,5.4&#10;&#9;&#9;c0.8,3.8,3.2,6.5,5.1,8.6c1.1,1.1,2,2.4,2.6,3.8c0.6,2.1,7.2,18.3,10.6,22.4c0.6,0.9,0.3,2.2-0.7,2.8c-0.7,0.5-1.7,0.4-2.3-0.2&#10;&#9;&#9;c-0.2-0.2-19.8-22.2-22.7-25.9c-0.9-1.3-1.6-2.6-2.2-4c-2.7-5.5-4.8-9-10.1-7.2c-2.2,0.7-3.5,1.7-3.9,2.9c-0.8,2.6,2.2,6.9,4.3,9.7&#10;&#9;&#9;c0.9,1.5,2.4,2.5,4.1,2.9c2.1,0.4,3.8,1.7,4.7,3.6c1.6,3.1,12.2,17,16.2,22.1c0.5,0.7,0.5,1.7,0,2.4c-0.5,0.7-1.5,1-2.3,0.7&#10;&#9;&#9;c-0.6-0.2-15.1-5.5-19.7-9.7c-4.4-4-9.1-7.7-12.8-5.4c-1.7,1-2.7,2.8-2.7,4.7c-0.1,2.3,1,4.5,2.9,5.9c1.7,1.2,3.6,1.2,5.5,1.1&#10;&#9;&#9;c2.4-0.1,5.4-0.2,7.4,2.7c2.3,3.2,9.8,10.8,22.2,15.8c0.5,0.2,0.9,0.5,1.1,1c0,0.1,5.1,11,25.4,17.3c0.5,0.1,0.9,0.5,1.1,0.9&#10;&#9;&#9;c8.4,14.4,16.8,28.7,25.2,43.1C189.4,416.8,191.3,420.1,193.3,423.4L193.3,423.4z"/>
	<path class="st1_alien-82" d="M145.5,347.5c-1.1,0-1.9-0.8-2-1.9c-0.5-10.7,16.9-18.8,17.7-19.1c0.9-0.6,2.2-0.3,2.8,0.6&#10;&#9;&#9;c0.6,0.9,0.3,2.2-0.6,2.8c-0.2,0.1-0.3,0.2-0.5,0.2c-4.4,2-15.7,8.7-15.4,15.4C147.5,346.5,146.7,347.4,145.5,347.5L145.5,347.5z"/>
	<path class="st1_alien-82" d="M321.8,183c-10.4,0.6-38.1,4.9-56.6,31c-1.7,2.4-1.5,5.7,0.5,7.9c3.6,4.1,12.4,8.9,34.2,7.4&#10;&#9;&#9;c23.9-1.6,34.3-28.2,28.5-42.4C327.2,184.4,324.6,182.8,321.8,183z"/>
	<path class="st1_alien-82" d="M292.2,231.6c-16.9,0-24.6-4.4-28-8.4c-2.6-2.9-2.8-7.2-0.6-10.4c18.9-26.7,46.9-31.2,58.1-31.9l0,0&#10;&#9;&#9;c3.6-0.2,7,1.8,8.4,5.2c3.3,8.2,1.7,19.9-4.1,29.2c-6,9.6-15.2,15.2-26.1,16C297.2,231.6,294.6,231.6,292.2,231.6z M321.9,185&#10;&#9;&#9;c-10.6,0.6-37.2,4.9-55.1,30.2c-1.2,1.7-1,4,0.3,5.5c2.8,3.1,10.6,8.2,32.5,6.7c9.5-0.6,17.7-5.7,23-14.1&#10;&#9;&#9;c5.1-8.2,6.7-18.5,3.8-25.6C325.7,185.9,323.9,184.8,321.9,185L321.9,185z"/>
	<path class="st1_alien-82" d="M182.9,183c10.4,0.6,38.1,4.9,56.6,31c1.7,2.4,1.5,5.7-0.4,7.9c-3.6,4.1-12.4,8.9-34.2,7.4&#10;&#9;&#9;c-23.9-1.6-34.3-28.2-28.4-42.4C177.5,184.4,180.1,182.8,182.9,183z"/>
	<path class="st1_alien-82" d="M212.5,231.6c-2.4,0-5-0.1-7.8-0.3c-10.8-0.7-20.1-6.4-26.1-16c-5.8-9.3-7.4-21-4.1-29.2&#10;&#9;&#9;c1.4-3.3,4.8-5.4,8.4-5.2l0,0c11.2,0.7,39.2,5.2,58.1,31.9c2.2,3.2,2,7.5-0.6,10.4C237.1,227.2,229.4,231.6,212.5,231.6z&#10;&#9;&#9; M182.5,184.9c-1.8,0-3.5,1.1-4.2,2.7c-2.9,7.1-1.4,17.4,3.8,25.6c5.3,8.5,13.4,13.5,23,14.1c21.9,1.5,29.8-3.6,32.5-6.7&#10;&#9;&#9;c1.4-1.5,1.5-3.8,0.3-5.5c-17.9-25.3-44.5-29.6-55.1-30.2L182.5,184.9L182.5,184.9z"/>
	<path class="st1_alien-82" d="M248.5,246.4L248.5,246.4c-1.1,0-2-0.9-2-1.9l0,0c0-1.9,2.1-6.6,3-8.5c0.6-0.9,1.8-1.2,2.8-0.6&#10;&#9;&#9;c0.8,0.5,1.1,1.4,0.8,2.3c-1.1,2.2-2,4.5-2.6,6.8C250.4,245.5,249.6,246.3,248.5,246.4z"/>
	<path class="st1_alien-82" d="M256.4,246.4c-1.1,0-2-0.9-2-2c-0.6-2.4-1.5-4.6-2.6-6.8c-0.3-1,0.2-2.2,1.3-2.5c0.9-0.3,1.8,0.1,2.3,0.8&#10;&#9;&#9;c0.9,1.9,3,6.6,3,8.5C258.3,245.5,257.4,246.4,256.4,246.4z"/>
	<path class="st1_alien-82" d="M253.2,261.6c-11,0-18-4.1-18.4-4.4c-0.8-0.7-0.9-2-0.2-2.8c0.5-0.6,1.4-0.9,2.2-0.6l0,0&#10;&#9;&#9;c0.7,0.4,17.5,10.2,40.2-3.1c1-0.4,2.2,0.1,2.6,1.1c0.3,0.8,0.1,1.8-0.6,2.3C269.2,259.8,260.3,261.6,253.2,261.6z"/>
	<path class="st1_alien-82" d="M335.4,159.6c-1.1,0-1.9-0.8-2-1.9c-2-41.8-21.4-54.5-21.5-54.7c-1-0.5-1.4-1.7-0.9-2.7c0.5-1,1.7-1.4,2.7-0.9&#10;&#9;&#9;c0.1,0.1,0.3,0.1,0.4,0.2c0.9,0.6,21.2,14,23.4,57.8c0,1.1-0.8,2-1.9,2.1L335.4,159.6z"/>
</g>
<g id="lines_alien-82">
	<circle class="st0_alien-82" cx="123.8" cy="223.3" r="17"/>
	<path class="st3_alien-82" d="M123.8,242.2c-10.5,0-18.9-8.5-18.9-19s8.5-18.9,19-18.9c10.4,0,18.9,8.5,18.9,18.9&#10;&#9;&#9;C142.7,233.8,134.2,242.2,123.8,242.2z M123.8,208.3c-8.3,0-15,6.7-15,15c0,8.3,6.7,15,15,15s15-6.7,15-15&#10;&#9;&#9;C138.8,215,132,208.3,123.8,208.3L123.8,208.3z"/>
	<path class="st3_alien-82" d="M356.6,307.7c-17.2,0-31.2-13.9-31.2-31.1c0-17.2,13.9-31.2,31.1-31.2c17.2,0,31.2,13.9,31.2,31.1&#10;&#9;&#9;c0,13.9-9.2,26.2-22.6,30C362.3,307.3,359.5,307.7,356.6,307.7z M356.6,249.5c-15,0-27.1,12.1-27.1,27.1s12.1,27.1,27.1,27.1&#10;&#9;&#9;c15,0,27.1-12.1,27.1-27.1c0-2.5-0.3-5-1-7.3C379.4,257.6,368.8,249.5,356.6,249.5L356.6,249.5z"/>
	<path class="st3_alien-82" d="M315.5,295.7c-9.4,0-10.2-2.7-10.5-3.9c-0.5-1.6-1.8-6.4,21.9-16c1-0.5,2.2-0.2,2.7,0.7s0.2,2.2-0.7,2.7&#10;&#9;&#9;c-0.2,0.1-0.3,0.2-0.5,0.2c-15,6.1-19.1,10-19.5,11.2c1,0.8,6.6,2,22.9-0.7c9.1-1.6,18.1-3.6,27-6.2c8.9-2.5,17.7-5.5,26.3-8.9&#10;&#9;&#9;c15.3-6.2,19.4-10.2,19.8-11.4c-1-0.8-6.5-2-22.5,0.6c-1.1,0.3-2.2-0.3-2.5-1.3s0.3-2.2,1.3-2.5c0.2-0.1,0.4-0.1,0.5-0.1&#10;&#9;&#9;c25.2-4.2,26.5,0.6,27,2.2s1.8,6.4-22.2,16.1c-8.7,3.5-17.6,6.5-26.7,9c-9,2.6-18.2,4.7-27.5,6.3&#10;&#9;&#9;C326.8,295,321.2,295.6,315.5,295.7z"/>
	<circle class="st0_alien-82" cx="174.9" cy="260.7" r="6.1"/>
	<path class="st3_alien-82" d="M174.9,268.8c-4.5,0-8.1-3.6-8.1-8.1c0-4.5,3.6-8.1,8.1-8.1c4.5,0,8.1,3.6,8.1,8.1c0,0,0,0,0,0&#10;&#9;&#9;C183,265.2,179.3,268.8,174.9,268.8z M174.9,256.5c-2.3,0-4.2,1.9-4.2,4.1s1.9,4.1,4.1,4.1c2.3,0,4.2-1.9,4.2-4.1l0,0&#10;&#9;&#9;C179,258.4,177.2,256.5,174.9,256.5z"/>
	<path class="st3_alien-82" d="M377,200.6c-1.1,0-2-0.9-2-2v-8.8c0-1.1,0.9-2,2-2s2,0.9,2,2v8.8C379,199.7,378.1,200.6,377,200.6z"/>
	<path class="st3_alien-82" d="M377,220.4c-1.1,0-2-0.9-2-2v-8.8c0-1.1,0.9-2,2-2s2,0.9,2,2v8.8C379,219.5,378.1,220.4,377,220.4z"/>
	<path class="st3_alien-82" d="M391.3,206.1h-8.8c-1.1,0-2-0.9-2-2s0.9-2,2-2h8.8c1.1,0,2,0.9,2,2S392.4,206.1,391.3,206.1z"/>
	<path class="st3_alien-82" d="M371.5,206.1h-8.8c-1.1,0-2-0.9-2-2s0.9-2,2-2h8.8c1.1,0,2,0.9,2,2S372.6,206.1,371.5,206.1z"/>
	<path class="st3_alien-82" d="M347.9,345.6c-1.1,0-2-0.9-2-2v-8.8c0-1.1,0.9-2,2-2s2,0.9,2,2v8.8C349.9,344.7,349,345.6,347.9,345.6z"/>
	<path class="st3_alien-82" d="M347.9,365.4c-1.1,0-2-0.9-2-2v-8.8c0-1.1,0.9-2,2-2s2,0.9,2,2v8.8C349.9,364.5,349,365.4,347.9,365.4z"/>
	<path class="st3_alien-82" d="M362.2,351.1h-8.8c-1.1,0-2-0.9-2-2s0.9-2,2-2h8.8c1.1,0,2,0.9,2,2S363.3,351.1,362.2,351.1z"/>
	<path class="st3_alien-82" d="M342.4,351.1h-8.8c-1.1,0-2-0.9-2-2s0.9-2,2-2h8.8c1.1,0,2,0.9,2,2S343.5,351.1,342.4,351.1z"/>
	<path class="st3_alien-82" d="M128.8,166.6c-1.1,0-2-0.9-2-2v-7c0-1.1,0.9-2,2-2s2,0.9,2,2v7C130.8,165.7,129.9,166.6,128.8,166.6z"/>
	<path class="st3_alien-82" d="M128.8,182.3c-1.1,0-2-0.9-2-2v-7c0-1.1,0.9-2,2-2s2,0.9,2,2v7C130.8,181.4,129.9,182.3,128.8,182.3z"/>
	<path class="st3_alien-82" d="M140.2,170.9h-7c-1.1,0-2-0.9-2-2s0.9-2,2-2h7c1.1,0,2,0.9,2,2S141.3,170.9,140.2,170.9z"/>
	<path class="st3_alien-82" d="M124.5,170.9h-7c-1.1,0-2-0.9-2-2s0.9-2,2-2h7c1.1,0,2,0.9,2,2S125.6,170.9,124.5,170.9z"/>
	<path class="st3_alien-82" d="M128.8,268.8c-0.3,0-0.5-0.1-0.8-0.2L103,257.8c-0.9-0.6-1.3-1.8-0.7-2.7c0.5-0.8,1.4-1.1,2.3-0.9l25.1,10.9&#10;&#9;&#9;c1,0.5,1.4,1.7,0.9,2.7C130.2,268.3,129.6,268.8,128.8,268.8L128.8,268.8z"/>
</g>
</svg>