<svg id="_0278_alien_1" xmlns="http://www.w3.org/2000/svg" viewBox="0 0 500 500" data-imageid="alien-1-14" imageName="Alien 1" class="illustrations_image" style="width: 595px;"><defs><style>.cls-1_alien-1-14{opacity:.45;}.cls-1_alien-1-14,.cls-2_alien-1-14,.cls-3_alien-1-14{fill:none;}.cls-4_alien-1-14{fill:#fff;}.cls-5_alien-1-14{fill:#a5a5a5;}.cls-2_alien-1-14{opacity:.23;}.cls-6_alien-1-14{fill:#e6e6e6;}.cls-3_alien-1-14{opacity:.09;}.cls-7_alien-1-14{fill:#24285b;}.cls-8_alien-1-14{fill:#000001;}.cls-9_alien-1-14{fill:#ffd200;}.cls-10_alien-1-14{fill:#68e1fd;}</style></defs><g id="ufo_alien-1-14"><circle class="cls-10_alien-1-14 targetColor" cx="254.76" cy="113.19" r="93.34" style="fill: rgb(104, 225, 253);"/><g class="cls-3_alien-1-14"><path class="cls-8_alien-1-14" d="m303.56,109.96s17.08-65.34-33.4-88.84c0,0,74.73,9.77,77.93,92.07l-44.53-3.23Z"/></g><path class="cls-5_alien-1-14" d="m468.74,157.44c0-27.57-95.8-48.78-213.99-48.78s-213.99,22.35-213.99,49.92v17.33h13.25c30.19,19.03,108.67,32.6,200.74,32.6s170.55-13.57,200.74-32.6h10.09c1.74,0,3.16-1.41,3.16-3.16v-15.31Z"/><ellipse class="cls-6_alien-1-14" cx="254.76" cy="173.43" rx="213.99" ry="49.92"/><ellipse class="cls-7_alien-1-14" cx="254.76" cy="206.53" rx="69.45" ry="16.2"/><g class="cls-3_alien-1-14"><path class="cls-8_alien-1-14" d="m324.21,206.53s71.09-48.2-20.63-83.02v-13.54s161.88,7.74,165.17,47.47v15.99s6.18,33.1-147.47,47.46l2.94-14.36Z"/></g><g class="cls-2_alien-1-14"><ellipse class="cls-4_alien-1-14" cx="228.1" cy="51.95" rx="22.52" ry="16.78" transform="translate(-4.94 72.42) rotate(-17.85)"/></g></g><g id="obj3_alien-1-14"><path class="cls-9_alien-1-14" d="m74.57,333.67c-5.34,2.88-9.35,7.89-10.43,13.86-1.15,6.31,1.01,13.5,15.65,15.16,27.32,3.1,41.49-21.11,28.2-32.28-9.32-7.83-24.92-1.33-33.41,3.26Z"/><path class="cls-9_alien-1-14" d="m71.98,327.21c-5.34,2.88-9.35,7.89-10.43,13.86-1.15,6.31,1.01,13.5,15.65,15.16,27.32,3.1,41.49-21.11,28.2-32.28-9.32-7.83-24.92-1.33-33.41,3.26Z"/><g class="cls-3_alien-1-14"><path class="cls-8_alien-1-14" d="m71.98,327.21c-5.34,2.88-9.35,7.89-10.43,13.86-1.15,6.31,1.01,13.5,15.65,15.16,27.32,3.1,41.49-21.11,28.2-32.28-9.32-7.83-24.92-1.33-33.41,3.26Z"/></g></g><g id="obj2_alien-1-14"><circle class="cls-9_alien-1-14" cx="412.38" cy="366.19" r="16.76"/><circle class="cls-9_alien-1-14" cx="408.34" cy="359.92" r="16.76"/><g class="cls-3_alien-1-14"><circle class="cls-8_alien-1-14" cx="408.34" cy="359.92" r="16.76"/></g></g><g id="bg_alien-1-14"><path class="cls-7_alien-1-14" d="m185.3,206.53s8.76,40.04-11.26,51.23c-20.02,11.19-41.81,34.74-25.91,60.66s20.25,58.89-5.48,69.49c-25.73,10.6-32.21,69.68-32.21,69.68h280.9s2.94-70.27-30.03-84.99c-32.98-14.72-5.89-20.02-17.08-72.43-11.19-52.41-38.87-17.67-20.02-93.63h-138.9Z"/><circle class="cls-4_alien-1-14" cx="212.9" cy="228.99" r="2.94"/><circle class="cls-4_alien-1-14" cx="171.5" cy="301.46" r="2.94"/><circle class="cls-4_alien-1-14" cx="359.13" cy="388.54" r="2.94"/><circle class="cls-4_alien-1-14" cx="277.97" cy="408.69" r="2.94"/><circle class="cls-4_alien-1-14" cx="223.96" cy="443.77" r="2.94"/><circle class="cls-4_alien-1-14" cx="164.34" cy="399.15" r="2.94"/><circle class="cls-4_alien-1-14" cx="313.67" cy="283.52" r="2.94"/><circle class="cls-4_alien-1-14" cx="285.73" cy="208.5" r="2.94"/><path class="cls-9_alien-1-14" d="m44.37,435.02h112.91c5.24,0,10,2.66,13.15,6.85,2.13,2.84,6.42,6.09,14.87,8.75,19.72,6.21,27.6,8.07,52.53,7.45,20.83-.52,57.81,1.89,68.42-12.48,4.77-6.45,12.05-10.57,20.07-10.57h126.13c7.96,0,14.62,6.7,13.86,14.63-.7,7.31-7.06,14.63-29.72,14.63-45.32,0-53.73-.62-77.46,11.17-23.73,11.8-79.11-3.1-115.36,3.1-36.26,6.21-67.59-18.62-88.24-14.28-15.95,3.36-88.85,13.29-118.06-4.94-11.23-7.01-6.34-24.32,6.9-24.32Z"/></g><g id="house_alien-1-14"><path class="cls-9_alien-1-14" d="m197.48,345.17l97.79,23.66c11.9,2.88,10.67,20.33-1.53,21.34-2.13.18-4.58.12-7.39-.24-25.61-3.26-20.77-6.77-36.59-6.94-26.37-.28-31.86-16.04-44.43-15.03-8.64.7-19.27-2.17-21.13-10.38-1.73-7.63,5.67-14.25,13.27-12.41Z"/><rect class="cls-10_alien-1-14 targetColor" x="234.13" y="253.31" width="14" height="33.45" transform="translate(68.27 -48.06) rotate(13.24)" style="fill: rgb(104, 225, 253);"/><g class="cls-1_alien-1-14"><rect class="cls-4_alien-1-14" x="234.13" y="253.31" width="14" height="33.45" transform="translate(68.27 -48.06) rotate(13.24)"/></g><rect class="cls-4_alien-1-14" x="212.14" y="302.22" width="80.39" height="56.41" transform="translate(82.4 -49.02) rotate(13.24)"/><polygon class="cls-10_alien-1-14 targetColor" points="210.1 291.51 307.42 314.41 269.06 252.63 210.1 291.51" style="fill: rgb(104, 225, 253);"/><rect class="cls-7_alien-1-14" x="226.94" y="321.28" width="21.78" height="34.23" transform="translate(83.85 -45.48) rotate(13.24)"/><rect class="cls-10_alien-1-14 targetColor" x="261.82" y="316.15" width="22.17" height="19.84" transform="translate(81.95 -53.85) rotate(13.24)" style="fill: rgb(104, 225, 253);"/></g><g id="obj1_alien-1-14"><path class="cls-9_alien-1-14" d="m324.7,229.85c-3.45-2.29-7.74-3.17-11.7-1.94-4.24,1.31-8,4.91-4.24,14.37,6.93,17.48,26.11,18.23,28.57,6.6,1.71-8.09-7.11-15.36-12.63-19.03Z"/><path class="cls-9_alien-1-14" d="m321.56,226.36c-3.45-2.29-7.74-3.17-11.7-1.94-4.24,1.31-8,4.91-4.24,14.37,6.93,17.48,26.11,18.23,28.57,6.6,1.71-8.09-7.11-15.36-12.63-19.03Z"/><g class="cls-3_alien-1-14"><path class="cls-8_alien-1-14" d="m321.56,226.36c-3.45-2.29-7.74-3.17-11.7-1.94-4.24,1.31-8,4.91-4.24,14.37,6.93,17.48,26.11,18.23,28.57,6.6,1.71-8.09-7.11-15.36-12.63-19.03Z"/></g></g></svg>